<?xml version="1.0" encoding="UTF-8"?>
<svg width="24" height="24" viewBox="0 0 24 24" fill="none" xmlns="http://www.w3.org/2000/svg">
  <path d="M21.49 2L13.54 8.37L14.77 4.6L21.49 2Z" fill="#E17726"/>
  <path d="M2.51 2L10.41 8.44L9.23 4.6L2.51 2Z" fill="#E27625"/>
  <path d="M18.73 16.59L17.28 18.42L21.02 19.5L22.35 16.67L18.73 16.59Z" fill="#E27625"/>
  <path d="M1.71 16.67L3.04 19.5L6.78 18.42L5.33 16.59L1.71 16.67Z" fill="#E27625"/>
  <path d="M6.12 11.47L5.27 12.69L10.11 12.95L9.93 8.04L6.12 11.47Z" fill="#E27625"/>
  <path d="M17.94 11.47L14.07 8L13.89 12.95L18.73 12.69L17.94 11.47Z" fill="#E27625"/>
  <path d="M6.78 18.42L8.85 17.79L7.03 16.73L6.78 18.42Z" fill="#E27625"/>
  <path d="M15.21 17.79L17.28 18.42L17.03 16.73L15.21 17.79Z" fill="#E27625"/>
  <path d="M17.28 18.42L15.21 17.79L15.39 19.12L15.37 20.35L17.28 18.42Z" fill="#D5BFB2"/>
  <path d="M6.78 18.42L8.69 20.35L8.67 19.12L8.85 17.79L6.78 18.42Z" fill="#D5BFB2"/>
  <path d="M8.75 14.61L6.95 14.1L8.27 13.5L8.75 14.61Z" fill="#233447"/>
  <path d="M15.31 14.61L15.79 13.5L17.11 14.1L15.31 14.61Z" fill="#233447"/>
  <path d="M6.78 18.42L7.05 16.59L5.33 16.67L6.78 18.42Z" fill="#CC6228"/>
  <path d="M17.22 16.59L17.49 18.42L18.94 16.67L17.22 16.59Z" fill="#CC6228"/>
  <path d="M18.73 12.69L17.94 11.47L15.31 14.61L15.79 13.5L17.11 14.1L18.73 12.69Z" fill="#CC6228"/>
  <path d="M8.27 13.5L8.75 14.61L6.12 11.47L5.33 12.69L6.95 14.1L8.27 13.5Z" fill="#CC6228"/>
  <path d="M17.11 14.1L15.79 13.5L15.31 14.61L15.53 16.73L15.68 19.12L17.49 20.35L17.51 19.12L17.22 16.59L17.11 14.1Z" fill="#E27525"/>
  <path d="M8.67 19.12L8.85 17.79L8.75 14.61L6.95 14.1L6.78 16.59L6.49 19.12L6.51 20.35L8.32 19.12L8.67 19.12Z" fill="#E27525"/>
  <path d="M15.37 20.35L15.39 19.12L15.21 17.79L15.11 16.73L15.33 14.61L15.31 13.5L17.94 11.47L18.73 12.69L17.11 14.1L17.22 16.59L17.51 19.12L17.49 20.35H15.37Z" fill="#F5841F"/>
  <path d="M6.51 20.35L6.49 19.12L6.78 16.59L6.89 14.1L5.27 12.69L6.12 11.47L8.75 13.5L8.73 14.61L8.95 16.73L8.85 17.79L8.67 19.12L8.69 20.35H6.51Z" fill="#F5841F"/>
  <path d="M15.31 14.61L17.94 11.47L18.73 12.69L17.11 14.1L15.31 14.61Z" fill="#F5841F"/>
  <path d="M8.75 14.61L6.12 11.47L6.95 14.1L8.75 14.61Z" fill="#F5841F"/>
  <path d="M15.31 14.61L15.11 16.73L15.33 14.61H15.31Z" fill="#F5841F"/>
  <path d="M8.75 14.61L8.95 16.73L8.73 14.61H8.75Z" fill="#F5841F"/>
  <path d="M15.37 20.35L15.39 19.12L15.21 17.79L15.11 16.73L15.33 14.61L15.31 13.5L17.94 11.47L18.73 12.69L17.11 14.1L17.22 16.59L17.51 19.12L17.49 20.35H15.37Z" fill="#C0AC9D"/>
  <path d="M6.51 20.35L6.49 19.12L6.78 16.59L6.89 14.1L5.27 12.69L6.12 11.47L8.75 13.5L8.73 14.61L8.95 16.73L8.85 17.79L8.67 19.12L8.69 20.35H6.51Z" fill="#C0AC9D"/>
  <path d="M15.31 14.61L17.94 11.47L18.73 12.69L17.11 14.1L15.31 14.61Z" fill="#C0AC9D"/>
  <path d="M8.75 14.61L6.12 11.47L6.95 14.1L8.75 14.61Z" fill="#C0AC9D"/>
  <path d="M15.31 14.61L15.11 16.73L15.33 14.61H15.31Z" fill="#C0AC9D"/>
  <path d="M8.75 14.61L8.95 16.73L8.73 14.61H8.75Z" fill="#C0AC9D"/>
</svg> 